<?xml version="1.0" standalone="no"?>
<!DOCTYPE svg PUBLIC "-//W3C//DTD SVG 20010904//EN"
 "http://www.w3.org/TR/2001/REC-SVG-20010904/DTD/svg10.dtd">
<svg version="1.0" xmlns="http://www.w3.org/2000/svg"
 width="300.000000pt" height="187.000000pt" viewBox="0 0 300.000000 187.000000"
 preserveAspectRatio="xMidYMid meet">
<metadata>
Created by potrace 1.10, written by Peter Selinger 2001-2011
</metadata>
<g transform="translate(0.000000,187.000000) scale(0.100000,-0.100000)"
fill="#000000" stroke="none">
<path d="M1480 1741 c-50 -26 -92 -97 -92 -155 0 -26 6 -54 14 -63 9 -11 14
-64 18 -179 l5 -163 -34 -6 c-45 -9 -96 -61 -110 -111 -34 -126 104 -227 221
-164 l37 20 36 -21 c28 -17 47 -20 91 -17 47 4 61 10 91 40 66 67 55 180 -22
228 -18 11 -44 21 -59 22 l-26 2 0 150 c0 132 3 155 21 193 27 56 20 115 -21
172 -51 69 -106 86 -170 52z m123 -43 c53 -51 66 -104 42 -166 -10 -24 -16
-85 -18 -177 -4 -151 0 -184 23 -195 77 -36 93 -48 106 -72 8 -16 12 -34 8
-40 -4 -7 -3 -8 4 -4 8 5 10 -5 6 -31 -5 -40 -52 -98 -82 -101 -54 -5 -83 0
-115 18 l-35 21 -38 -21 c-22 -11 -57 -20 -81 -20 -34 0 -48 6 -77 34 -32 30
-36 39 -36 84 0 62 32 106 84 116 19 4 40 13 46 21 18 22 14 319 -5 355 -33
64 -14 146 42 189 42 31 87 27 126 -11z"/>
<path d="M625 1736 c-62 -27 -115 -102 -115 -161 0 -14 7 -39 15 -55 13 -26
13 -36 0 -92 -8 -35 -18 -107 -22 -160 -6 -91 -8 -98 -27 -98 -12 0 -36 -9
-54 -20 -100 -61 -96 -205 8 -262 44 -24 116 -20 156 9 l27 20 35 -23 c63 -43
159 -25 204 38 50 72 25 179 -52 218 -21 11 -47 20 -58 20 -20 0 -20 -6 -1
170 9 93 14 108 40 137 25 29 29 42 29 90 0 132 -88 212 -185 169z m88 -25
c34 -13 69 -74 71 -124 2 -45 -10 -78 -43 -116 -12 -13 -21 -33 -22 -45 0 -12
-2 -32 -3 -46 -2 -14 -7 -65 -11 -115 -7 -85 -6 -91 15 -110 12 -11 23 -19 24
-17 2 6 57 -18 70 -31 40 -40 47 -105 16 -152 -11 -16 -20 -26 -20 -21 0 6 -6
2 -13 -8 -22 -30 -97 -33 -144 -6 l-40 22 -46 -21 c-57 -26 -93 -26 -134 -1
-40 24 -53 48 -55 100 -2 51 23 88 79 115 66 32 70 39 72 109 1 35 4 74 7 87
3 13 6 31 6 39 -1 8 4 36 11 63 8 36 8 59 -2 97 -16 63 -7 104 32 142 49 46
83 57 130 39z"/>
<path d="M2345 1742 c-11 -2 -33 -16 -49 -30 -64 -59 -75 -159 -27 -233 23
-36 31 -62 40 -141 17 -147 15 -168 -11 -168 -62 0 -121 -72 -121 -145 0 -114
123 -185 220 -126 31 20 32 19 70 0 57 -30 124 -22 169 22 19 18 39 49 44 69
20 73 -29 161 -99 180 l-38 10 -6 87 c-4 49 -13 118 -21 156 -13 60 -13 71 0
104 20 47 13 95 -21 139 -42 55 -103 86 -150 76z m86 -53 c17 -13 34 -26 38
-29 13 -10 31 -62 31 -88 -1 -15 -7 -40 -14 -57 -10 -24 -10 -41 0 -90 7 -33
16 -96 20 -140 3 -44 7 -84 8 -90 2 -18 47 -55 66 -55 16 0 69 -51 71 -68 0
-4 2 -20 4 -36 6 -46 -21 -92 -67 -114 -42 -21 -66 -19 -125 12 -31 16 -63 13
-63 -6 0 -5 -4 -7 -9 -3 -5 3 -12 1 -16 -5 -3 -5 -27 -10 -53 -10 -69 0 -104
33 -110 104 -6 70 8 93 73 121 29 13 56 32 59 42 7 22 0 150 -12 218 -5 28
-23 72 -40 99 -25 39 -29 52 -21 69 8 14 8 18 0 12 -8 -5 -10 2 -5 22 26 106
96 145 165 92z"/>
<path d="M815 806 c-33 -14 -85 -70 -85 -90 0 -24 -257 -113 -408 -142 -86
-16 -109 -29 -148 -79 -104 -136 -48 -366 98 -405 121 -33 236 88 232 247 -2
50 -1 52 30 59 109 23 473 189 505 230 78 99 -94 237 -224 180z m176 -62 c60
-59 47 -107 -41 -147 -25 -11 -47 -21 -50 -21 -3 -1 -49 -23 -104 -49 -54 -26
-103 -47 -108 -47 -5 0 -19 -5 -31 -12 -12 -6 -29 -12 -37 -13 -24 -2 -113
-38 -130 -53 -11 -9 -15 -29 -13 -69 5 -133 -97 -245 -195 -215 -92 28 -133
99 -128 221 3 85 15 113 68 164 22 20 49 31 103 42 41 7 95 21 120 30 26 8 51
13 56 10 5 -4 9 -2 9 3 0 5 33 19 74 31 40 12 82 28 92 36 11 8 26 15 35 15 8
0 29 20 46 44 40 57 74 74 141 71 47 -2 58 -7 93 -41z"/>
<path d="M1764 761 c-23 -10 -47 -27 -52 -37 -8 -15 -64 -29 -267 -70 -289
-59 -307 -67 -355 -160 -21 -41 -25 -62 -25 -134 0 -96 13 -130 73 -193 122
-127 312 -14 313 185 1 59 3 67 22 71 12 3 117 24 232 47 116 22 225 45 242
51 44 14 73 53 73 98 0 111 -148 193 -256 142z m138 -27 c58 -36 88 -71 88
-106 0 -44 -22 -74 -62 -83 -18 -4 -35 -9 -38 -9 -12 -5 -68 -16 -100 -21 -19
-3 -78 -15 -130 -25 -52 -11 -113 -22 -135 -26 -48 -7 -95 -30 -96 -47 0 -6
-2 -37 -4 -67 -7 -126 -84 -214 -179 -204 -57 5 -77 18 -116 76 -32 47 -35 57
-36 133 -2 86 12 132 51 175 19 21 95 66 95 56 0 -2 28 2 63 11 34 8 74 16 90
19 15 2 39 6 55 8 130 21 257 57 281 79 14 13 35 29 46 35 22 12 105 9 127 -4z"/>
<path d="M2186 589 c-97 -24 -159 -118 -159 -240 0 -237 247 -329 348 -129 14
27 28 73 31 104 l7 55 56 -21 c72 -27 122 -59 191 -121 87 -78 144 -93 185
-47 25 28 36 89 24 135 -19 72 -76 115 -152 115 -27 0 -49 6 -57 15 -22 27
-123 82 -198 109 -82 29 -213 41 -276 25z m208 -34 c72 -19 171 -61 208 -89
64 -50 73 -56 83 -57 101 -5 122 -14 151 -71 29 -56 6 -131 -43 -141 -24 -4
-67 13 -60 24 1 2 0 3 -2 2 -11 -6 -41 20 -35 30 4 7 4 9 -1 5 -4 -4 -27 9
-50 30 -49 43 -156 100 -203 107 -43 7 -62 -12 -62 -62 0 -53 -47 -142 -90
-171 -41 -27 -99 -28 -144 -1 -37 22 -86 94 -87 128 -4 93 2 162 14 154 6 -3
7 -1 3 6 -11 18 60 99 95 108 54 15 162 13 223 -2z"/>
</g>
</svg>
